<?xml version="1.0" ?><svg data-name="Слой 1" id="Слой_1" viewBox="0 0 128 128" xmlns="http://www.w3.org/2000/svg"><title/><path fill="currentColor" d="M64,0a64,64,0,1,0,64,64A64.07,64.07,0,0,0,64,0Zm0,124a60,60,0,1,1,60-60A60.07,60.07,0,0,1,64,124Z"/><path fill="currentColor" d="M92.59,71.09,66,97.67V25.5a2,2,0,0,0-4,0V97.67L35.41,71.09a2,2,0,0,0-2.82,2.82l30,30a1.79,1.79,0,0,0,.31.25.83.83,0,0,0,.16.09l.19.1.2.06.17,0a1.92,1.92,0,0,0,.78,0l.17,0,.2-.06.19-.1a.83.83,0,0,0,.16-.09,1.79,1.79,0,0,0,.31-.25l30-30a2,2,0,0,0-2.82-2.82Z"/></svg>